<svg xmlns="http://www.w3.org/2000/svg">
    <symbol id="LEGO" viewBox="0 0 180 180" fill="currentColor" >
        <path d="M1.223 1.204V178.8H178.82l-.001-177.596H1.223Z" fill="#fff"/>
        <path fill-rule="evenodd" clip-rule="evenodd" d="M1.223 178.8V1.204h177.595l.001 177.596H1.223Zm162.171-86.743c1.555-4.606 3.316-11.5 3.606-17.033.221-4.174-.341-10.02-4.278-14.174-3.141-3.319-7.94-4.994-14.264-4.994-7.989 0-14.426 2.82-19.136 8.397l-1.243 1.466-.826-1.734c-.674-1.413-1.156-1.992-1.89-2.82-3.219-3.642-8.617-5.488-16.044-5.487-6.804 0-12.95 2.039-17.308 5.742l-1.103.937-.76-1.237c-2.058-3.345-7.188-5.51-13.065-5.51-8.456.002-16.988 1.15-22.135 9.447l-2.133 3.424-.167-4.033c-.13-3.12-.415-4.416-1.866-5.952-1.596-1.693-4.282-2.516-8.21-2.513-5.768 0-10.103 2.515-13.256 7.694-4.853 7.752-16.583 33.25-16.324 45.369.17 7.865 5.418 12.679 14.043 12.878 7.108.172 12.758-1.652 16.347-5.274l.916-.926.88.952c3.226 3.502 8.13 5.432 13.811 5.432 7.234 0 13.42-2.248 16.973-6.171l.97-1.069.912 1.121c3.326 4.086 8.466 6.228 14.863 6.202 8.343-.037 16.135-3.871 21.376-10.512l1.374-1.741.767 2.083c3.23 8.783 11.984 10.092 16.921 10.095 16.765 0 24.005-11.503 30.249-30.059Z" fill="#FFED00"/>
        <path fill-rule="evenodd" clip-rule="evenodd" d="M1.223 178.8V1.204h177.595l.001 177.596H1.223Zm163.283-73.742c2.321-4.784 6.688-16.757 7.495-23.222l.009-.071c.984-7.892 1.915-15.36-3.41-22.781-3.786-5.274-10.237-8.813-20.052-8.814-7.419 0-14.045 2.01-19.343 6.416-4.537-4.49-11.044-6.528-19.802-6.526-6.853 0-12.605 1.567-17.614 4.574-3.636-2.889-7.904-4.694-14.704-4.694-6.164-.001-14.818.32-21.347 5.863-1.509-3.079-4.577-5.497-13.04-5.497-7.796 0-14.156 3.688-18.327 10.535-5.569 8.895-17.39 34.582-17.088 48.614.225 10.563 8.146 17.84 19.62 18.113 6.895.161 12.767-1.315 17.248-4.289 4.052 2.92 9.23 4.497 14.984 4.497 6.886.001 13.098-1.807 17.704-5.053 4.173 3.308 9.648 5.096 15.842 5.096 8.036.003 15.503-2.772 21.535-8.051 4.114 5.246 11.162 7.973 19.721 7.974 16.023.001 24.346-9.854 30.569-22.684Z" fill="#E3000B"/>
        <path fill-rule="evenodd" clip-rule="evenodd" d="M0 180V0h180l-.003 179.997L0 180Zm177.52-2.479.002-175.043H2.476L2.48 177.52h175.04Z"/>
        <path fill-rule="evenodd" clip-rule="evenodd" d="M167.615 54.301a4.305 4.305 0 0 1 4.309-4.313 4.307 4.307 0 0 1 4.315 4.313 4.304 4.304 0 0 1-4.315 4.312 4.302 4.302 0 0 1-4.309-4.312Zm4.311-3.457c1.918.001 3.477 1.545 3.472 3.463.005 1.918-1.56 3.467-3.472 3.467a3.458 3.458 0 0 1-3.453-3.467 3.448 3.448 0 0 1 3.453-3.463Zm1.679 4.81.515.9-1.117.007-.357-.73a3.643 3.643 0 0 0-.609-.874c-.176-.183-.337-.229-.734-.229l-.164.001-.002 1.83h-.921v-4.467h2.225c.959 0 1.409.535 1.409 1.243.002.675-.454 1.16-1.208 1.25l.002.025c.383.133.51.258.961 1.044Zm-2.469-2.868v1.227h.933c.624 0 .83-.304.821-.62 0-.394-.313-.61-.921-.61l-.833.003Zm-42.77 10.664c4.348-5.15 10.782-8.839 20.086-8.839 16.105 0 20.318 10.53 19.79 20.48-.313 5.98-2.232 13.104-3.666 17.365-6.37 18.931-14.02 30.902-31.43 30.9-7.945.002-15.216-3.098-18.081-10.908-5.233 6.622-13.231 10.944-22.35 10.989-6.97.034-12.39-2.429-15.835-6.66-4.09 4.514-11.011 6.581-17.89 6.583-6.18-.004-11.34-2.157-14.727-5.835-3.774 3.806-9.704 5.826-17.257 5.649-9.675-.232-15.08-6.037-15.258-14.095-.266-12.474 11.614-38.226 16.511-46.045 3.38-5.547 8.075-8.27 14.31-8.273 3.423.003 6.938.598 9.111 2.9 1.787 1.89 2.074 3.57 2.206 6.75 5.48-8.83 14.716-10.03 23.19-10.028 6.484 0 11.866 2.427 14.124 6.096 4.346-3.694 10.605-6.038 18.113-6.038 7.685.001 13.41 1.876 16.974 5.908.786.885 1.345 1.562 2.079 3.102ZM43.59 106.915c.286-3.016-1.973-6.273-10.986-4.709.895-2.005 2.226-4.753 3.737-7.873v-.001C41.183 84.334 47.874 70.519 48 65.114c.068-2.665-1.006-4.887-5.328-4.885-4.566-.002-7.43 1.908-9.776 5.762-5.088 8.125-15.893 32.635-15.666 43.229.128 6.056 4.823 8.446 10.04 8.568 7.19.167 15.472-1.852 16.321-10.874Zm18.35-13.03c-.6 1.614-1.728 4.994-2.639 8.571 2.958-.738 5.173-1.249 8.97-1.161 4.329.106 7.099 1.898 7.097 5.48 0 8.674-9.593 11.222-16.24 11.224-7.306 0-13.724-4.155-13.724-12.144 0-9.366 5.076-23.568 9.84-33.023 5.848-11.616 11.827-13.159 22.12-13.159 4.526 0 9.736 1.932 9.736 6.204 0 5.922-5.008 8.18-9.983 8.466-2.127.122-5.394.239-7.348.099 0 0-1.661 2.525-3.416 7.015 9.208-1.296 13.116.795 11.562 6.12-2.104 7.199-8.342 7.674-15.976 6.307Zm39.964-19.114c1.215-1.703 2.84-3.28 5.333-3.28 3.055 0 2.759 1.616 2.034 3.681-2.059 5.88 4.159 6.035 5.677 5.915 5.428-.423 8.419-3.93 9.155-9.904 1.008-8.134-5.845-11.257-14.532-11.257-14.48 0-20.164 8.856-25.586 21.516-2.547 5.947-5.755 16.11-5.754 22.582-.001 9.09 5.53 14.019 14.444 14.019 13.017 0 22.215-10.38 24.843-23.313.809-3.98 1.806-11.449-8.304-11.033-5.132.212-8.228 1.344-9.86 6.588-1.68 5.402 4.413 5.549 4.413 5.549-1.226 5.585-4.815 8.971-8.013 8.974-1.996 0-3.812-.866-3.204-5.09.903-6.176 6.687-21.198 9.354-24.947Zm60.017 7.407c-1.536 7.62-4.976 16.64-8.714 23.361-6.1 10.964-13.499 12.5-19.968 12.418-6.465-.077-13.754-2.461-13.809-12.439-.039-7.16 3.048-17.272 5.671-23.893 4.575-12.01 9.241-21.805 24.01-21.63 17.218.201 14.147 15.516 12.81 22.183Zm-21.598 19.537c2.394-4.055 9.133-22.448 9.317-27.047.054-1.34-.167-2.9-2.327-2.925-1.481-.021-2.769.266-3.927 2.055-2.602 3.382-10.219 24.185-10.09 28.335.047 1.492.88 2.795 2.712 2.795 2.11.002 3.279-1.45 4.315-3.213Z"/>
    </symbol>
    <symbol id="GSC" width="539" height="152" viewBox="0 0 539 152" fill="none" ><g clip-path="url(#clip0_2289_15170)"><path d="M287.49 125.03h-2a.533.533 0 00-.344.125.534.534 0 00-.186.315c-1.53 6.61-5.51 9.83-12.19 9.83s-10.6-3.22-12.13-9.83a.545.545 0 00-.54-.44h-1.94a.583.583 0 00-.42.18.557.557 0 00-.13.43c.52 4.55 2.15 8.18 4.81 10.77a14.336 14.336 0 0010.36 3.9c1.91.07 3.815-.238 5.605-.907 1.79-.67 3.43-1.687 4.825-2.993 2.69-2.59 4.32-6.2 4.84-10.77a.484.484 0 00-.12-.43.537.537 0 00-.44-.18zm-23.31-3.59a4.197 4.197 0 001.625-.324 4.185 4.185 0 001.375-.926 4.25 4.25 0 000-6 4.21 4.21 0 00-2.164-1.152 4.226 4.226 0 00-4.331 1.804 4.227 4.227 0 00.526 5.319 4.25 4.25 0 002.959 1.259l.01.02zm17.67-.18a4.202 4.202 0 004.21-4.22 4.221 4.221 0 00-4.21-4.21 4.231 4.231 0 00-4.2 4.21 4.12 4.12 0 001.23 3 4.009 4.009 0 002.97 1.22z" fill="#EE7800"/><path d="M272.94 95.21a28 28 0 100 56.001 28 28 0 000-56.001zm0 50.94a23 23 0 110-46.001 23 23 0 010 46.001z" fill="#EE7800"/><path d="M55.76 37.94l-7.72 7.5c-4.88-5.073-10.567-7.607-17.06-7.6a19.728 19.728 0 00-14.23 5.52 17.879 17.879 0 00-5.72 13.4 18.289 18.289 0 005.93 13.82 20.31 20.31 0 0014.62 5.63 18.63 18.63 0 009.61-2.27 16.131 16.131 0 006.26-7.16H30.73V56.54h29.08l.08 2.38a28.621 28.621 0 01-14.06 24.31 29.221 29.221 0 01-14.61 3.49 33.001 33.001 0 01-16-3.83 28.32 28.32 0 01-11.14-10.9A30.1 30.1 0 010 56.72a28.13 28.13 0 017.58-19.56c6-6.57 13.77-9.9 23.32-9.9 4.824-.035 9.605.9 14.06 2.75a32.12 32.12 0 0110.8 7.93zm38.09-.14a18.238 18.238 0 00-13.45 5.45 18.83 18.83 0 00-5.45 13.86c0 6.27 2.29 11.2 6.88 14.84a19 19 0 0012.22 4.26 18.056 18.056 0 0013.28-5.52 19.619 19.619 0 000-27.31 18.25 18.25 0 00-13.48-5.58zM94 27.26a29.86 29.86 0 0129.83 29.93 28.414 28.414 0 01-8.67 21 28.937 28.937 0 01-21.08 8.56c-8.627 0-15.813-2.937-21.56-8.81a29.89 29.89 0 01-4.59-35.85 29.49 29.49 0 0111-10.81A30.17 30.17 0 0194 27.26zm62.87 10.54a18.205 18.205 0 00-13.45 5.45 18.789 18.789 0 00-5.45 13.86c0 6.27 2.28 11.2 6.86 14.84a19.06 19.06 0 0012.24 4.26 17.999 17.999 0 0013.28-5.52 19.689 19.689 0 00-.05-27.31 18.234 18.234 0 00-13.43-5.58zm.13-10.54a29.874 29.874 0 0121.13 8.777 29.868 29.868 0 018.72 21.153 28.359 28.359 0 01-8.68 21 28.911 28.911 0 01-21.08 8.56c-8.667 0-15.85-2.937-21.55-8.81a29.822 29.822 0 01-4.58-35.85 29.387 29.387 0 0111-10.81A30.072 30.072 0 01157 27.26zm45.37 11.9v35.68h5.21c5.11 0 8.77-.57 11.09-1.69a13.091 13.091 0 005.61-5.7 20.187 20.187 0 002.19-9.86c0-6-1.733-10.667-5.2-14-3.13-3-8.15-4.48-15.08-4.48l-3.82.05zm-10.85-10.5h13.06c8.44 0 14.7 1 18.79 3.06a24.21 24.21 0 0110.11 10 34.2 34.2 0 011.76 28.18 25.625 25.625 0 01-6.13 9.12 22.099 22.099 0 01-8.51 5c-3.05.91-8.3 1.37-15.81 1.37h-13.27V28.66z" fill="#9FA0A0"/><path d="M302.37 13.47l-14 10.4c-4.88-5.7-9.88-8.55-14.95-8.55a10.41 10.41 0 00-6.07 1.67c-1.56 1.12-2.34 2.36-2.34 3.76a5.84 5.84 0 001.67 3.94c1.55 1.66 6.12 5.22 13.8 10.67 7.207 5.053 11.573 8.247 13.1 9.58a33.638 33.638 0 018.09 9.26 20.068 20.068 0 012.39 9.69c0 6.79-2.8 12.42-8.45 16.87-5.65 4.45-13 6.64-22 6.64a37.648 37.648 0 01-18.48-4.34c-5.22-2.92-9.73-7.47-13.47-13.69l15.84-8c4.76 7.367 10.243 11.057 16.45 11.07a13.76 13.76 0 008.15-2.38c2.2-1.587 3.3-3.42 3.3-5.5a8.76 8.76 0 00-2.46-5.66c-1.69-1.87-5.35-4.77-11-8.65-10.78-7.4-17.737-13.1-20.87-17.1-3.15-4-4.71-8-4.71-12 0-5.76 2.63-10.72 7.88-14.84 5.25-4.12 11.7-6.2 19.4-6.2 4.87-.035 9.696.929 14.18 2.83 4.5 1.89 9.33 5.41 14.55 10.53zm19.62-11.41h15.1l19.57 58.06L376.3 2.06h15.36l13.89 83.24h-15.37l-8.89-52.58L363.5 85.3h-13.78L332 32.72l-9.17 52.58h-15.39l14.55-83.24zm107.9 0h-15.8V85.3h15.8V2.06zm14.68 0h15.8v68.07h23.39V85.3h-39.19V2.06zm48.42 0h45.49v15.32h-29.7v15.15h29.7v15.33h-29.7v21.8h29.7V85.3h-45.49V2.06z" fill="#EE7800"/><path d="M240.22 106.37l-6.9 6.54c-4.667-4.933-9.947-7.403-15.84-7.41a17.376 17.376 0 00-16.302 10.826 17.38 17.38 0 00-1.278 6.764 18.716 18.716 0 002.25 9.21 15.938 15.938 0 006.37 6.29 18.256 18.256 0 009.16 2.35c2.692.033 5.36-.517 7.82-1.61a27.797 27.797 0 007.82-5.83l6.68 7a36.002 36.002 0 01-10.84 7.8 29.543 29.543 0 01-11.64 2.17c-8.053 0-14.64-2.56-19.76-7.68-5.13-5.1-7.72-11.64-7.72-19.63a27 27 0 013.54-13.82 26.003 26.003 0 0110-9.69 28.38 28.38 0 0114.07-3.71 29.805 29.805 0 0122.57 10.39v.04zm71.66-9.08h9.5l11.97 36.13 12.16-36.13h9.61l8.56 51.8h-9.53l-5.46-32.71-11.01 32.71h-8.74l-10.83-32.71-5.72 32.71h-9.57l9.06-51.8zm67.62 20.24h3.22a17.89 17.89 0 005.21-.52 4.64 4.64 0 002.31-1.75 5 5 0 00.84-3 4.707 4.707 0 00-2.35-4.38c-1.14-.69-3.28-1-6.37-1h-2.86v10.65zm-9.74-20.24h10.5c5.66 0 9.75.54 12.24 1.56a12.539 12.539 0 015.92 5.09 15.648 15.648 0 012.17 8.38 14.124 14.124 0 01-2.83 9 14.888 14.888 0 01-7.75 5c-1.95.55-5.44.81-10.51.81v22h-9.74V97.29zm51.25 13.8l-7.06 17.85h14l-6.94-17.85zm-5-13.8h9.9l19.89 51.81h-10.22l-4-10.66h-21.26l-4.16 10.66h-10.25l20.1-51.81zm35.74 0h9.32l22.39 34.09V97.29h9.76v51.8h-9.38l-22.34-33.97v33.97h-9.75v-51.8zm46.72 0h10.58l9.62 18.61 9.65-18.61h10.44l-15.18 29.38v22.42h-9.94v-22.42l-15.17-29.38z" fill="#9FA0A0"/></g><defs><clipPath id="clip0_2289_15170"><path fill="#fff" d="M0 0h538.76v151.14H0z"/></clipPath></defs></symbol>
    
    <symbol id="mageHouse"  width="52.54" height="60" viewBox="0 0 52.54 60"><defs><style>.d{fill:#fff;}.d,.e,.f,.g{stroke:#231815;stroke-linecap:round;stroke-linejoin:round;stroke-width:.33px;}.e{fill:#e60012;}.f{fill:#005bac;}.h{fill:#231815;}.g{fill:#fff100;}</style></defs><g id="b"><g id="c"><g><g><polygon class="h" points="5.65 48.89 3.66 53.87 1.67 48.89 -.13 48.89 -.13 57.66 1.27 57.66 1.27 51.78 3.66 57.66 6.05 51.78 6.05 57.66 7.45 57.66 7.45 48.89 5.65 48.89"/><path class="h" d="M42.43,55.76c0,.4,.2,.9,.5,1.2,.4,.4,1.1,.7,1.79,.7,.6,0,1.2-.2,1.59-.6,.3-.3,.5-.8,.5-1.3,0-.4-.2-1.5-1.99-1.89h-.2c-.3-.1-.9-.3-.9-.6,0-.1,0-.2,.1-.3s.3-.2,.6-.2,.6,.1,.8,.3q.1,.1,.1,.2h1.4c0-.4-.2-.9-.5-1.2-.4-.4-1.1-.7-1.79-.7-1.2,0-2.09,.8-2.09,1.89,0,.4,.2,1.5,1.99,1.99h.2c.3,.1,.9,.3,.9,.6s-.3,.5-.7,.5c-.3,0-.6-.1-.8-.3q-.1-.1-.1-.2l-1.4-.1h0Z"/><path class="h" d="M40.44,51.38v3.99c0,.5-.4,.9-1,.9-.3,0-.5-.1-.7-.3s-.3-.4-.3-.6v-3.99h-1.4v3.99c0,.6,.2,1.2,.7,1.69,.4,.4,1,.7,1.69,.7s1.2-.2,1.69-.7c.4-.4,.7-1,.7-1.69v-3.99h-1.4Z"/><path class="h" d="M23.89,52.18c-.5-.5-1.2-.8-1.89-.8-1.59,0-2.49,1.1-2.49,1.79h1.59c.1-.2,.4-.4,1-.4,.4,0,.7,.1,.9,.4,.1,.1,.2,.3,.3,.6-.4-.2-.9-.3-1.4-.3-1.4,0-2.49,.9-2.49,2.19,0,.6,.2,1.1,.6,1.5,.5,.5,1.1,.7,1.89,.7,.5,0,1-.1,1.4-.3v.3h1.4v-3.89c-.1-.8-.3-1.4-.8-1.79h0Zm-1.1,3.89c-.2,.2-.5,.3-.9,.3h-.1c-.3,0-.7,0-.9-.3-.1-.1-.2-.3-.2-.5s.1-.4,.2-.5c.2-.2,.5-.3,.9-.3h.1c.3,0,.7,.1,.9,.3,.1,.1,.2,.3,.2,.5s-.1,.3-.2,.5Z"/><path class="h" d="M35.15,54.97c0,.8-.5,1.4-1.1,1.4-.3,0-.6-.2-.7-.3-.3-.3-.4-.6-.4-1v-.9c0-.4,.1-.8,.4-1,.1-.1,.4-.3,.7-.3s.6,.2,.7,.3c.3,.3,.4,.6,.4,1v.8h0Zm1.4-.8c0-.8-.3-1.5-.8-2.09-.5-.5-1.1-.7-1.69-.7-1.4,0-2.59,1.2-2.59,2.79v.8c0,.8,.3,1.5,.8,2.09,.5,.5,1.1,.7,1.69,.7s1.3-.3,1.69-.7c.5-.5,.8-1.3,.8-2.09,.1,0,.1-.8,.1-.8Z"/><path class="h" d="M12.33,52.08c-.5-.5-1.1-.7-1.69-.7-1.4,0-2.59,1.2-2.59,2.79v.8c0,.8,.3,1.5,.8,2.09,.5,.5,1.1,.7,1.69,.7s1.3-.3,1.69-.7c.4-.4,.7-.9,.8-1.5h-1.5c-.2,.5-.6,.8-1,.8-.3,0-.6-.2-.7-.3-.2-.2-.4-.6-.4-1h3.69v-.9c0-.8-.3-1.59-.8-2.09h0Zm-1.69,.7c.3,0,.6,.2,.7,.3,.1,.1,.3,.3,.3,.5h-2.09c.1-.2,.2-.4,.3-.5,.2-.2,.4-.3,.8-.3h0Z"/><path class="h" d="M51.6,52.08c-.5-.5-1.1-.7-1.69-.7-1.4,0-2.59,1.2-2.59,2.79v.8c0,.8,.3,1.5,.8,2.09,.5,.5,1.1,.7,1.69,.7s1.3-.3,1.69-.7,.7-.9,.8-1.5h-1.5c-.2,.5-.6,.8-1,.8-.3,0-.6-.2-.7-.3-.2-.2-.4-.6-.4-1h3.69v-.9c.1-.8-.2-1.59-.8-2.09h0Zm-1.69,.7c.3,0,.6,.2,.7,.3s.3,.3,.3,.5h-2.09c.1-.2,.2-.4,.3-.5,.2-.2,.5-.3,.8-.3h0Z"/><path class="h" d="M17.41,51.38v.3c-.4-.2-.7-.3-1.2-.3-1.4,0-2.59,1.2-2.59,2.79v.8c0,.8,.3,1.5,.8,2.09,.5,.5,1.1,.7,1.69,.7,.4,0,.8-.1,1.2-.3v.3c0,.5-.5,.9-1.1,.9-.3,0-.7-.1-.9-.3-.1-.1-.2-.3-.3-.5h-1.3c0,.5,.3,1.1,.7,1.5,.5,.5,1.2,.8,1.89,.8s1.4-.3,1.89-.8c.4-.4,.7-1,.7-1.59v-6.28l-1.5-.1h0Zm0,3.59c0,.8-.5,1.4-1.1,1.4-.3,0-.6-.2-.7-.3-.3-.3-.4-.6-.4-1v-.9c0-.4,.1-.8,.4-1,.1-.1,.4-.3,.7-.3s.6,.2,.7,.3c.3,.3,.4,.6,.4,1v.8h0Z"/><polygon class="h" points="29.47 48.89 29.47 52.58 26.78 52.58 26.78 48.89 25.39 48.89 25.39 57.66 26.78 57.66 26.78 53.97 29.47 53.97 29.47 57.66 30.87 57.66 30.87 48.89 29.47 48.89"/></g><g><g><polygon class="g" points="1.67 35.43 9.04 38.12 33.46 29.25 26.18 26.56 1.67 35.43"/><polygon class="g" points="18.81 41.71 26.18 44.4 50.6 35.43 43.23 32.84 18.81 41.71"/></g><polygon class="f" points="43.23 6.43 50.6 9.12 50.6 35.43 43.23 32.84 43.23 23.47 33.46 19.88 33.46 29.25 26.18 26.56 26.18 .15 33.46 2.84 33.46 12.11 43.23 15.7 43.23 6.43"/><polygon class="e" points="1.67 35.43 1.67 9.12 9.04 11.81 13.93 21.08 18.81 15.3 26.18 17.99 26.18 44.4 18.81 41.71 18.81 26.56 13.93 32.34 9.04 23.07 9.04 38.12 1.67 35.43"/><g><polygon class="d" points="18.81 15.3 26.18 17.99 50.6 9.12 43.23 6.43 18.81 15.3"/><polygon class="d" points="1.67 9.12 9.04 11.81 33.46 2.84 26.18 .15 1.67 9.12"/></g></g></g></g></g></symbol>
    <symbol id="FuRyu"  width="120" height="47.119" viewBox="0 0 120 47.119">
        <g id="グループ_298" data-name="グループ 298" transform="translate(-89.571 -786.073)">
            <g id="グループ_300" data-name="グループ 300" transform="translate(89.571 786.073)">
            <path id="パス_143" data-name="パス 143" d="M100.994,789.664h9.4v-3.341H99.406c-6.466,0-9.835,2.476-9.835,8.911v17.485h6.174V800.782H108.21V797.42H95.745v-2.851C95.745,791.135,97.624,789.664,100.994,789.664Z" transform="translate(-89.571 -786.158)" fill="#009"/>
            <path id="パス_144" data-name="パス 144" d="M100.994,789.664h9.4v-3.341H99.406c-6.466,0-9.835,2.476-9.835,8.911v17.485h6.174V800.782H108.21V797.42H95.745v-2.851C95.745,791.135,97.624,789.664,100.994,789.664Z" transform="translate(-89.571 -786.158)" fill="#009"/>
            <path id="パス_145" data-name="パス 145" d="M138.215,798.13v12.13c0,2.414-1.685,3.935-4.227,3.935s-4.221-1.473-4.221-3.834V798.13h-5.734v11.556c0,4.4,3.009,7.343,9.984,7.343s9.936-2.89,9.936-7.286V798.13Z" transform="translate(-101.239 -790.155)" fill="#009"/>
            <path id="パス_146" data-name="パス 146" d="M255.062,798.13v12.13c0,2.414-1.681,3.935-4.223,3.935s-4.219-1.473-4.219-3.834V798.13h-5.738v11.556c0,4.4,3.009,7.343,9.988,7.343s9.932-2.89,9.932-7.286V798.13Z" transform="translate(-140.803 -790.155)" fill="#009"/>
            <g id="グループ_298-2" data-name="グループ 298" transform="translate(74.768 7.975)">
                <path id="パス_147" data-name="パス 147" d="M216.8,798.13v12.13c0,2.41-1.743,3.935-4.225,3.935s-4.217-1.458-4.217-3.834V798.13h-5.74v11.556c0,4.4,2.859,7.343,9.316,7.343a12.837,12.837,0,0,0,4.91-.933v9.458c4.465-1.168,5.695-4.49,5.695-9.7V798.13Z" transform="translate(-202.614 -798.13)" fill="#009"/>
            </g>
            <g id="グループ_299" data-name="グループ 299" transform="translate(48.045)">
                <path id="パス_148" data-name="パス 148" d="M184.145,794.449c0-4.77-4.246-8.376-10.788-8.376-6.935,0-11.146,3.606-11.146,9.507v17.055h6.174V794.65c0-3.275,1.825-5.36,4.951-5.36,3.212,0,4.909,2.035,4.909,5.1,0,3.041-2.373,5.693-6.492,5.693h-1.406s5.541,6.838,7.673,9.471c1.829,2.261,3.71,3.081,7.02,3.081h2.433l-9.081-11.023A7.717,7.717,0,0,0,184.145,794.449Z" transform="translate(-162.211 -786.073)" fill="#009"/>
            </g>
            </g>
            <g id="グループ_302" data-name="グループ 302" transform="translate(95.417 822.938)">
            <path id="パス_149" data-name="パス 149" d="M100.35,847.607l-.354-.019v2.677H98.409v-6.8a5.449,5.449,0,0,1,2.243-.413c2.048,0,2.84,1,2.84,2.274C103.492,846.659,102.57,847.808,100.35,847.607Zm.289-3.66a2.321,2.321,0,0,0-.643.083v2.66l.354.007c1.091.054,1.606-.451,1.606-1.381A1.2,1.2,0,0,0,100.639,843.947Z" transform="translate(-98.409 -842.23)" fill="#787878"/>
            <path id="パス_150" data-name="パス 150" d="M110.757,846.651c-.957-.386-1.583-.062-1.583.661v3.75h-1.554v-3.878c0-1.1.777-1.775,2.044-1.775a4.781,4.781,0,0,1,1.385.187Z" transform="translate(-101.527 -843.028)" fill="#787878"/>
            <path id="パス_151" data-name="パス 151" d="M115.252,848.7a1.437,1.437,0,0,0,1.494,1.425,2.494,2.494,0,0,0,1.4-.329l.306.9a3.782,3.782,0,0,1-1.912.456,2.651,2.651,0,0,1-2.73-2.906,2.59,2.59,0,0,1,2.6-2.87c1.675,0,2.481,1.14,2.311,3.322Zm1.089-2.3c-.79,0-1.1.676-1.1,1.374h2.124C117.362,846.91,116.953,846.4,116.342,846.4Z" transform="translate(-103.623 -843.018)" fill="#787878"/>
            <path id="パス_152" data-name="パス 152" d="M125.717,851.169a2.879,2.879,0,0,1,0-5.752,3.141,3.141,0,0,1,1.685.4l-.318.89a2.4,2.4,0,0,0-1.191-.3c-.876,0-1.439.673-1.439,1.853s.672,1.87,1.439,1.87a2.386,2.386,0,0,0,1.211-.261l.306.9A3.316,3.316,0,0,1,125.717,851.169Z" transform="translate(-106.729 -843.031)" fill="#787878"/>
            <path id="パス_153" data-name="パス 153" d="M138.777,851.156c-1.67,0-2.553-1.229-2.553-2.894s.883-2.881,2.544-2.881c1.681,0,2.562,1.217,2.562,2.881S140.449,851.156,138.777,851.156Zm0-4.831c-.738,0-1.122.927-1.122,1.916s.395,1.879,1.122,1.879,1.124-.878,1.124-1.879S139.517,846.326,138.777,846.326Z" transform="translate(-111.213 -843.018)" fill="#787878"/>
            <path id="パス_154" data-name="パス 154" d="M148.3,851.208c-1.629,0-2.421-.7-2.421-2.049v-3.625h1.5v3.854c0,.5.283.853.965.853a2.3,2.3,0,0,0,.872-.193v-4.513h1.5v5.119A5.419,5.419,0,0,1,148.3,851.208Z" transform="translate(-114.48 -843.07)" fill="#787878"/>
            <path id="パス_155" data-name="パス 155" d="M156.6,851.147a3.341,3.341,0,0,1-1.695-.4l.349-.929a2.3,2.3,0,0,0,1.165.347c.585,0,.9-.276.9-.647s-.184-.63-.812-.872c-1.224-.463-1.464-1.085-1.464-1.678a1.766,1.766,0,0,1,1.929-1.583,3.07,3.07,0,0,1,1.664.4l-.393.847a1.5,1.5,0,0,0-.878-.288c-.523,0-.856.281-.856.624,0,.359.157.539.775.79,1.114.456,1.513,1.07,1.513,1.721C158.8,850.448,157.969,851.147,156.6,851.147Z" transform="translate(-117.536 -843.018)" fill="#787878"/>
            <path id="パス_156" data-name="パス 156" d="M195.9,851.147a3.343,3.343,0,0,1-1.695-.4l.349-.929a2.3,2.3,0,0,0,1.168.347c.583,0,.9-.276.9-.647s-.184-.63-.81-.872c-1.222-.463-1.468-1.085-1.468-1.678a1.768,1.768,0,0,1,1.933-1.583,3.062,3.062,0,0,1,1.662.4l-.391.847a1.514,1.514,0,0,0-.88-.288c-.523,0-.856.281-.856.624,0,.359.161.539.777.79,1.114.456,1.511,1.07,1.511,1.721C198.1,850.448,197.275,851.147,195.9,851.147Z" transform="translate(-130.845 -843.018)" fill="#787878"/>
            <path id="パス_157" data-name="パス 157" d="M257.51,851.147a3.353,3.353,0,0,1-1.695-.4l.351-.929a2.3,2.3,0,0,0,1.168.347c.583,0,.893-.276.893-.647s-.18-.63-.8-.872c-1.228-.463-1.47-1.085-1.47-1.678a1.769,1.769,0,0,1,1.931-1.583,3.043,3.043,0,0,1,1.659.4l-.388.847a1.491,1.491,0,0,0-.878-.288c-.523,0-.854.281-.854.624,0,.359.159.539.769.79,1.118.456,1.515,1.07,1.515,1.721C259.707,850.448,258.885,851.147,257.51,851.147Z" transform="translate(-151.704 -843.018)" fill="#787878"/>
            <path id="パス_158" data-name="パス 158" d="M170.047,850.08a2.593,2.593,0,0,1-2.842-2.851c0-1.788,1.05-2.884,2.54-2.884a4.718,4.718,0,0,1,.963.094V842.2h1.546v7.465A4.777,4.777,0,0,1,170.047,850.08Zm.661-4.775a2.572,2.572,0,0,0-.579-.06c-.92,0-1.391.763-1.391,1.908,0,1.212.491,1.9,1.339,1.9a1.749,1.749,0,0,0,.63-.083Z" transform="translate(-121.702 -841.942)" fill="#787878"/>
            <path id="パス_159" data-name="パス 159" d="M179.2,851.156c-1.674,0-2.53-.6-2.53-1.758,0-1.438,1.606-1.86,3.347-2.013v-.26c0-.576-.529-.744-1.137-.744a3.958,3.958,0,0,0-1.5.343l-.364-.92a5.72,5.72,0,0,1,2.177-.423c1.308,0,2.273.527,2.273,2.033v3.33A5.2,5.2,0,0,1,179.2,851.156Zm.817-3.031c-1.011.1-1.9.323-1.9,1.21,0,.652.5.931,1.17.931a2.1,2.1,0,0,0,.73-.114Z" transform="translate(-124.907 -843.018)" fill="#787878"/>
            <path id="パス_160" data-name="パス 160" d="M213.839,851.156c-1.674,0-2.534-.6-2.534-1.758,0-1.438,1.608-1.86,3.347-2.013v-.26c0-.576-.523-.744-1.139-.744a3.972,3.972,0,0,0-1.5.343l-.362-.92a5.72,5.72,0,0,1,2.177-.423c1.306,0,2.273.527,2.273,2.033v3.33A5.228,5.228,0,0,1,213.839,851.156Zm.813-3.031c-1.009.1-1.9.323-1.9,1.21,0,.652.506.931,1.17.931a2.076,2.076,0,0,0,.728-.114Z" transform="translate(-136.634 -843.018)" fill="#787878"/>
            <path id="パス_161" data-name="パス 161" d="M240.768,851.156c-1.677,0-2.533-.6-2.533-1.758,0-1.438,1.611-1.86,3.347-2.013v-.26c0-.576-.529-.744-1.137-.744a3.947,3.947,0,0,0-1.5.343l-.366-.92a5.742,5.742,0,0,1,2.177-.423c1.31,0,2.276.527,2.276,2.033v3.33A5.206,5.206,0,0,1,240.768,851.156Zm.814-3.031c-1.011.1-1.9.323-1.9,1.21,0,.652.5.931,1.168.931a2.089,2.089,0,0,0,.732-.114Z" transform="translate(-145.752 -843.018)" fill="#787878"/>
            <path id="パス_162" data-name="パス 162" d="M189.122,845.534l-1.215,3.672-1.116-3.672h-1.581l1.893,5.351-.887,2.44H187.7l2.877-7.791Z" transform="translate(-127.798 -843.07)" fill="#787878"/>
            <path id="パス_163" data-name="パス 163" d="M250.73,845.534l-1.215,3.672-1.114-3.672h-1.583l1.891,5.351-.885,2.44h1.486l2.877-7.791Z" transform="translate(-148.658 -843.07)" fill="#787878"/>
            <path id="パス_164" data-name="パス 164" d="M201.844,854.829h-.724s.591-2.2.759-2.765a.961.961,0,0,1,1.058-.689.643.643,0,0,1,.521,1.027C203.2,852.858,201.844,854.829,201.844,854.829Z" transform="translate(-133.185 -845.048)" fill="#787878"/>
            <path id="パス_165" data-name="パス 165" d="M220.884,849.976V842.2h1.552v7.774Z" transform="translate(-139.877 -841.942)" fill="#787878"/>
            <path id="パス_166" data-name="パス 166" d="M231.781,845.534l-.812,3.734-.9-3.734h-1.375l-.957,3.712-.711-3.712h-1.544l1.352,5.571h1.536l.918-3.5.893,3.5h1.544l1.412-5.571Z" transform="translate(-141.434 -843.07)" fill="#787878"/>
            <g id="グループ_301" data-name="グループ 301" transform="translate(22.035)">
                <path id="パス_167" data-name="パス 167" d="M131.811,851.1v-5.57h1.557v5.57Z" transform="translate(-131.753 -843.07)" fill="#787878"/>
                <path id="パス_168" data-name="パス 168" d="M133.4,842.644a.836.836,0,1,1-.837-.835A.833.833,0,0,1,133.4,842.644Z" transform="translate(-131.724 -841.809)" fill="#787878"/>
            </g>
            </g>
        </g>
    </symbol>
    <symbol id="ANIPLEX"  viewBox="0 0 501.46 201.5">
        <defs>
            <style>
            .cls-1 {
                fill: #ea5541;
            }

            .cls-2 {
                fill: #ba658e;
            }

            .cls-3 {
                fill: #db5f70;
            }

            .cls-4 {
                fill: #0d131a;
            }

            .cls-5 {
                fill: #6e60a8;
            }
            </style>
        </defs>
        <g>
            <path class="cls-2" d="m352.13,33.4l-1.84,2.25v71.05l1.84,2.25,59.32,11.94,2.75-2.25V23.67l-2.75-2.25-59.32,11.98Zm57.47-6.92v89.35l-54.72-11.02V37.53l54.72-11.05Z"/>
            <g>
            <path d="m480.15,118.43h-3.07v-.8h6.95v.8h-3.01v8.84h-.86v-8.84Z"/>
            <path d="m486.81,127.27v-9.65h1.37l3.57,8.4,3.64-8.4h1.3v9.65h-.85v-8.91h-.03l-3.63,8.91h-.86l-3.63-8.87h-.03v8.87h-.85Z"/>
            </g>
            <path class="cls-5" d="m2.3,33.35l-2.3,2.3v71.05l2.3,2.3h71.05l2.3-2.3V35.65l-2.3-2.3H2.3Zm68.75,4.6v66.45H4.6V37.95h66.45Z"/>
            <path class="cls-3" d="m169.11,9.92l-3.33,2.05v118.36l3.32,2.06,47.31-23.64,1.27-2.06V35.65l-1.27-2.05-47.31-23.67Zm43.98,95.36l-42.71,21.34V15.69l42.71,21.37v68.21Z"/>
            <path class="cls-5" d="m499.16,33.35h-71.05l-2.3,2.3v71.05l2.3,2.3h71.05l2.3-2.3V35.65l-2.3-2.3Zm-2.3,4.6v66.45h-66.45V37.95h66.45Z"/>
            <path class="cls-3" d="m285.03,33.59l-1.27,2.05v71.05l1.27,2.06,47.31,23.64,3.32-2.06V11.97l-3.33-2.05-47.31,23.67Zm46.04-17.9v110.92l-42.71-21.34V37.07l42.71-21.37Z"/>
            <rect class="cls-1" x="248.46" width="4.6" height="142.31"/>
            <polygon class="cls-2" points="146.57 68.69 146.57 104.83 91.85 115.85 91.85 26.5 146.57 37.54 146.57 46.92 151.17 46.92 151.17 35.66 149.32 33.41 90.01 21.44 87.25 23.69 87.25 118.65 90 120.91 149.32 108.96 151.17 106.71 151.17 55.71 146.57 68.69"/>
            <g>
            <path class="cls-4" d="m248.46,54.27v-7.97h-8.68l-17.06,48.21h10.35l6.6-18.67h8.8v-7.74c-1.76.01-4.31-.04-6.08-.04l4.75-13.75,1.33-.04Z"/>
            <path class="cls-4" d="m256.83,46.3h-3.76v7.99c4.31,0,9.54.25,7.19,6.84-1.34,3.76-4.7,5.73-7.19,6.25v7.96c8.22-1.72,15.63-6.91,18.21-14.21,4.32-12.22-3.79-14.76-14.45-14.82Z"/>
            <path class="cls-4" d="m11.97,95.12l34.49-48.21h12.29l-.04,48.21h-10.21l.13-10.22h-19.56l-7.22,10.22h-9.88Zm36.72-18.23l.39-20.57h-.13l-14.36,20.57h14.1Z"/>
            <path class="cls-4" d="m186.43,95.12h-10.35l17.06-48.21h10.35l-17.06,48.21Z"/>
            <path class="cls-4" d="m290.01,95.12l17.06-48.21h10.35l-14.23,40.2h22.8l-2.84,8.01h-33.15Z"/>
            <path class="cls-4" d="m373.73,46.91h32.32l-2.84,8.01h-21.97l-3.99,11.29h20.57l-2.84,8.01h-20.57l-4.56,12.89h22.7l-2.84,8.01h-33.05l17.06-48.21Z"/>
            <path class="cls-4" d="m443.37,95.12h-11.08l25.8-24.97-7.6-23.24h12.75l3.96,16.36,16.21-16.36h11.08l-24.09,23.17,7.97,25.04h-12.69l-4.32-18.16-17.98,18.16Z"/>
            <path class="cls-4" d="m122.52,95.12l-4.85-40.07-.18.13-14.13,39.93h-9.68l17.06-48.21h15.36l4.94,37.93.18-.13,13.38-37.8h9.68l-17.06,48.21h-14.69Z"/>
            </g>
        </g>
        <g>
            <g>
            <g>
                <path class="cls-5" d="m58.24,158.08h-20c-.24,0-.46.11-.61.3-.15.19-.2.43-.14.66l2.58,10.2c.09.34.39.58.75.58h17.42c.43,0,.77-.34.77-.77v-10.2c0-.43-.34-.77-.77-.77Z"/>
                <path class="cls-3" d="m58.24,172.11h-16.69c-.24,0-.46.11-.61.3-.15.19-.2.43-.14.66l2.58,10.2c.09.34.39.58.75.58h14.11c.43,0,.77-.34.77-.77v-10.2c0-.43-.34-.77-.77-.77Z"/>
                <path class="cls-1" d="m79.37,172.41c-.15-.19-.37-.3-.61-.3h-16.69c-.43,0-.77.34-.77.77v10.2c0,.43.34.77.77.77h14.11c.35,0,.66-.24.75-.58l2.58-10.2c.06-.23,0-.47-.14-.66Z"/>
                <path class="cls-2" d="m82.68,158.38c-.15-.19-.37-.3-.61-.3h-20c-.43,0-.77.34-.77.77v10.2c0,.43.34.77.77.77h17.42c.35,0,.66-.24.75-.58l2.58-10.2c.06-.23,0-.47-.14-.66Z"/>
            </g>
            <path class="cls-4" d="m98.63,153.7h-9.57s-.08.02-.12.02c-.1,0-.2.03-.3.06-.09.03-.18.05-.26.09-.09.04-.16.1-.24.16-.07.06-.14.11-.21.18-.06.07-.11.15-.16.24-.05.09-.1.17-.13.27-.01.04-.04.07-.05.1l-8.33,32.95h-35.34c-.83,0-1.5.67-1.5,1.5s.67,1.5,1.5,1.5h1.64c-.75,1.1-1.19,2.42-1.19,3.85,0,3.78,3.08,6.86,6.86,6.86s6.86-3.08,6.86-6.86c0-1.43-.44-2.75-1.19-3.85h10.56c-.75,1.1-1.19,2.42-1.19,3.85,0,3.78,3.08,6.86,6.86,6.86s6.86-3.08,6.86-6.86c0-1.43-.44-2.75-1.19-3.85h1.63s0,0,0,0c.19,0,.37-.04.54-.11.06-.02.1-.05.15-.08.11-.06.21-.12.3-.2.05-.05.09-.09.14-.15.07-.08.13-.18.19-.28.03-.06.06-.13.09-.2.01-.04.04-.08.05-.12l8.33-32.95h8.39c.83,0,1.5-.67,1.5-1.5s-.67-1.5-1.5-1.5Zm-43.54,40.95c0,2.12-1.73,3.85-3.85,3.85s-3.85-1.73-3.85-3.85,1.73-3.85,3.85-3.85,3.85,1.73,3.85,3.85Zm21.9,0c0,2.12-1.73,3.85-3.85,3.85s-3.85-1.73-3.85-3.85,1.73-3.85,3.85-3.85,3.85,1.73,3.85,3.85Z"/>
            </g>
            <g>
            <path class="cls-4" d="m127.79,167.64c-.91,6.85-3.47,10.56-9.44,13.94l-2.88-3.06c3.38-1.56,5.81-3.25,7.07-6.88h-21.07v-4h26.32Zm-26.1,22.35c3.1-1.22,6.25-3.31,7.85-6.31,1.47-2.66,1.72-6.22,1.72-9.38l4.31.03c-.09,3.84-.5,7.78-2.31,11.28-1.81,3.5-5.31,6.1-8.81,7.75l-2.75-3.38Z"/>
            <path class="cls-4" d="m158.35,186.15v4.13h-26.2v-4.13h26.2Zm-2.41-16.44v4.13h-21.45v-4.13h21.45Z"/>
            <path class="cls-4" d="m181.29,168.83l4.53,5.28c-.88,4.53-1.97,8.22-5.1,11.78-3.44,3.91-8.53,6.38-13.63,7.25l-1.91-3.91c4.41-.78,8.88-2.34,11.97-5.69,2.81-3.06,3.78-6.66,4.37-10.63h-18.54v-4.09h18.29Zm10.41-.38c0,2.38-1.91,4.28-4.28,4.28s-4.28-1.91-4.28-4.28,1.91-4.28,4.28-4.28,4.28,1.91,4.28,4.28Zm-6.5,0c0,1.22,1,2.22,2.22,2.22s2.22-1,2.22-2.22-1-2.22-2.22-2.22-2.22,1-2.22,2.22Z"/>
            <path class="cls-4" d="m200.56,188.3c3.85-.44,7.16-1.5,10.07-4.13,2.91-2.63,4.6-6.22,5.75-9.88l3.75,2.22c-4.47,12.03-11.44,15.97-23.98,16.38v-25.76h4.41v21.16Z"/>
            <path class="cls-4" d="m231,181.93l-3.56.87c-.47-2.69-1.31-5.31-2.47-7.78l3.34-.91c1.28,2.44,2.06,5.13,2.69,7.81Zm10.47,5.1c-3,3.47-7.28,5.5-11.69,6.56l-2.63-3.16c10.69-2.34,13.94-6.78,15.78-17.29l4.06.91c-1,4.63-2.38,9.35-5.53,12.97Zm-3.63-6.5l-3.47.78c-.5-2.66-1.09-5.19-2.16-7.69l3.31-.69c1.03,2.16,1.91,5.22,2.31,7.6Z"/>
            <path class="cls-4" d="m269.5,185.39c-3.97,4.5-9.41,6.97-15.19,8.13l-1.69-3.88c10.07-1.84,16.91-7.41,18.57-17.82h-9.78c-2.12,3.31-4.6,5.97-7.94,8.1l-2.66-3.09c3.53-2.22,6.06-5.06,7.85-8.85h17.35c-.5,6.41-2.16,12.5-6.5,17.41Z"/>
            <path class="cls-4" d="m305.71,189.9l-3.5,3.38c-2.91-3.25-5.94-6.22-9.22-9.1-3.25,3.63-7.69,7.06-12.16,9.03l-2.38-3.47c4.25-1.81,7.94-4.35,11.1-7.75,2.85-3.06,4.6-6.03,6.1-9.97h-15.47v-3.94h20.97c-.97,4.88-2.69,8.94-5.6,13,3.94,3.13,6.56,5.22,10.16,8.81Z"/>
            <path class="cls-4" d="m314.45,175.64v-3.94h14.16v-4.97h4.16v4.97h7.1v3.94h-7.06v13.44c.03,3.19-1.94,4.16-4.81,4.16-1.44,0-2.85-.09-4.28-.16l-.56-4.09c1.16.09,2.85.28,3.97.28.91,0,1.56-.12,1.56-1.19l-.03-8.5c-3.5,4.63-7.78,8.19-12.91,10.91l-2.5-3.25c5.34-2.56,10.53-6.94,14.16-11.6h-12.94Z"/>
            <path class="cls-4" d="m356.58,172.67l-2.25,3.85c-2.97-2.03-6.28-3.56-9.69-4.66l1.91-3.59c3.63,1.09,6.78,2.44,10.03,4.41Zm-11.35,15.57c5.22-.41,10.35-1.63,14.41-5.13,3.88-3.35,6.25-8.5,7.56-13.38l3.66,2.56c-4.1,12.72-11.32,19.01-24.7,20.47l-.94-4.53Z"/>
            <path class="cls-4" d="m400.64,175.02c-.5,5.25-2.25,10.75-6.63,14.03-3.56,2.66-9.31,3.72-13.66,4.13l-1.25-3.94c3.56-.22,8.03-.84,11.19-2.59,2.84-1.59,4.75-4.66,5.44-7.78h-20.04v-3.84h24.95Zm-1.94-7.41v3.81h-20.76v-3.81h20.76Z"/>
            <path class="cls-4" d="m423.39,193.24h-4.44v-13.22c-3.5,2.16-7,3.78-10.91,5.1l-2.06-3.69c8.81-2.75,16.47-8.03,22.32-15.13l3.75,2.59c-2.66,2.94-5.5,5.69-8.66,8.07v16.29Z"/>
            <path class="cls-4" d="m449.7,172.67l-2.25,3.85c-2.97-2.03-6.28-3.56-9.69-4.66l1.91-3.59c3.63,1.09,6.78,2.44,10.03,4.41Zm-11.35,15.57c5.22-.41,10.35-1.63,14.41-5.13,3.88-3.35,6.25-8.5,7.56-13.38l3.66,2.56c-4.1,12.72-11.32,19.01-24.7,20.47l-.94-4.53Z"/>
            </g>
        </g>
    </symbol>
</svg>