<svg xmlns="http://www.w3.org/2000/svg">
    <symbol id="show" enable-background="new 0 0 512.011 512.011" viewBox="0 0 512.011 512.011">
        <g>
            <path d="m282.113 218.474v186.674c-7.987-4.292-17.112-6.728-26.796-6.728-31.317 0-56.796 25.479-56.796 56.795 0 31.317 25.479 56.796 56.796 56.796s56.796-25.479 56.796-56.796v-138.58l169.892-14.918v85.878c-7.987-4.292-17.112-6.728-26.796-6.728-31.317 0-56.796 25.479-56.796 56.796s25.479 56.795 56.796 56.795 56.796-25.479 56.796-56.795v-239.376z"/>
            <path d="m249.994 189.427v-189.427l-185.119 16.255v142.677c-5.399-2.141-11.282-3.319-17.435-3.319-26.155 0-47.434 21.279-47.434 47.434s21.278 47.434 47.434 47.434 47.435-21.279 47.435-47.434v-101.462l125.119-10.987v54.713c-5.399-2.141-11.282-3.319-17.435-3.319-26.155 0-47.434 21.279-47.434 47.434s21.278 47.434 47.434 47.434 47.435-21.278 47.435-47.433z"/>
            <path d="m382.058 63.335h30v30.002h-30z"/>
            <path d="m382.058 123.339h30v30.002h-30z"/>
            <path d="m352.056 93.337h30v30.002h-30z"/>
            <path d="m412.06 93.337h30v30.002h-30z"/>
            <path d="m99.953 418.703h30v30.002h-30z"/>
            <path d="m99.953 358.699h30v30.002h-30z"/>
            <path d="m129.955 388.701h30v30.002h-30z"/>
            <path d="m69.951 388.701h30v30.002h-30z"/>
        </g>
    </symbol>
    <symbol id="fellowship"  viewBox="0 0 36 36"  data-name="Layer 1">
        <g fill-rule="evenodd">
            <path d="m30 8.62a1.15 1.15 0 0 1 0 2.29 1.15 1.15 0 1 1 0-2.29z"/>
            <path d="m5.17 27.58a1.15 1.15 0 1 1 1.15-1.15 1.15 1.15 0 0 1 -1.15 1.15z"/>
            <path d="m23.49 12a7.89 7.89 0 0 0 -9-1.24c-3 1.61-4.74 5.57-4.35 10.41a15.6 15.6 0 0 1 -4.53-3.32c-3.39-3.61-4.51-7.85-2.86-10.5s6.07-3.88 9.42-.27c1.09-4.79 5.51-6 8.28-4.47 2.55 1.39 3.73 5.06 3.04 9.39z"/>
            <path d="m30.43 28c-2.43 2.71-7.23 4.8-11.11 6-2.42-2.63-5.15-6.19-6.23-9.45-1.56-4.19-.77-10.31 2.45-11.79a5.61 5.61 0 0 1 7.26 2 7 7 0 0 1 1 2.47c.16-.17.34-.32.47-.47 3.27-3 7.38-1.83 9 .75s.5 6.87-2.84 10.49z"/><path d="m28.35 3.08a.46.46 0 0 1 .29-.43.44.44 0 0 1 .51.11l.45.5a.47.47 0 0 0 .35.15h.67a.45.45 0 0 1 .32.79l-.49.45a.44.44 0 0 0 -.15.35v.67a.46.46 0 0 1 -.8.32l-.45-.49a.44.44 0 0 0 -.35-.15h-.67a.47.47 0 0 1 -.44-.29.45.45 0 0 1 .12-.51l.49-.45a.44.44 0 0 0 .15-.35c0-.16 0-.41 0-.67z"/>
            <path d="m9.65 31.42a.46.46 0 0 1 -.86 0l-.23-.63a.51.51 0 0 0 -.27-.27l-.63-.23a.46.46 0 0 1 0-.86l.63-.23a.45.45 0 0 0 .27-.27c.06-.15.14-.38.23-.62a.46.46 0 0 1 .86 0c.09.24.18.47.23.62a.45.45 0 0 0 .27.27l.63.23a.46.46 0 0 1 0 .86l-.63.23a.51.51 0 0 0 -.27.27c-.05.16-.14.39-.23.63z"/>
        </g>
    </symbol>
    <symbol id="exhibition" enable-background="new 0 0 512 512"  viewBox="0 0 512 512"  >
        <g>
            <circle cx="176.376" cy="93.87" r="15"/>
            <path d="m221.716 228.04 108.4-99.05 121.04 102.76.73-231.75h-390.77l-.75 239.14 84.97-55.55zm-90.34-134.17c0-24.81 20.19-45 45-45s45 20.19 45 45-20.19 45-45 45-45-20.19-45-45z"/>
            <path d="m451.038 270.997-120.195-102.035-105.161 96.101-79.431-46.233-85.996 56.227-.139 44.574h390.77z"/>
            <path d="m451.837 482v-129.087h-30v29.901c-14.186 6.21-29.672 9.464-45.278 9.464s-31.093-3.253-45.28-9.465v-29.9h-30v29.901c-14.187 6.211-29.673 9.465-45.277 9.465-15.606 0-31.093-3.254-45.28-9.466v-29.9h-30v29.901c-14.188 6.211-29.674 9.465-45.278 9.465-15.606 0-31.092-3.254-45.279-9.466v-29.901h-30v129.088h-20v30h70v-30h-20v-67.078c14.535 4.845 29.865 7.358 45.279 7.358s30.743-2.512 45.278-7.358v67.078h-20v30h70v-30h-20v-67.079c14.535 4.846 29.866 7.358 45.28 7.358 15.413 0 30.743-2.512 45.277-7.357v67.078h-20v30h70v-30h-20v-67.079c14.535 4.846 29.866 7.357 45.28 7.357 15.415 0 30.745-2.512 45.278-7.357v67.079h-20v30h70v-30z"/>
        </g>
    </symbol>
    <symbol id="gourmetfood" viewBox="0 0 64 64">
        <path d="m24.61377 39.10156h-6.64502c-2.06787 0-3.75 1.68213-3.75 3.75v11.82568c0 3.8999 3.17236 7.07275 7.07227 7.07275s7.07275-3.17285 7.07275-7.07275v-11.82568c0-2.06787-1.68213-3.75-3.75-3.75z"/>
        <path d="m49.70898 39.10156h-6.64551c-2.06787 0-3.75 1.68213-3.75 3.75v11.82568c0 3.8999 3.17285 7.07275 7.07275 7.07275s7.07275-3.17285 7.07275-7.07275v-11.82568c0-2.06787-1.68213-3.75-3.75-3.75z"/>
        <path d="m42.95898 30.32959v7.28253c.52478-.00159 7.16595-.07404 7.5.06531v-34.67743c0-.41406-.33594-.75-.75-.75h-1.21289c-2.16748 0-4.01172 1.47705-4.48486 3.59229l-4.23682 18.93262c-.28564 1.27588-.04443 2.57617.6792 3.66162.59912.89844 1.49072 1.56641 2.50537 1.89307z"/>
        <path d="m28.83496 2.28711h-.00049c-1.30762.21289-2.29346 1.42529-2.29346 2.81982v7.28125c0 .66797-.44482 1.24365-1.03418 1.33936-.37842.06055-.7417-.03906-1.0249-.27979-.28027-.23828-.44092-.58545-.44092-.95264v-7.38818c0-1.39551-.98633-2.60742-2.29395-2.81982-.80566-.13135-1.62207.09375-2.2373.61768-.61572.52393-.96875 1.2876-.96875 2.09521v7.38818c0 .66797-.44482 1.24365-1.03418 1.33936-.37891.06055-.7417-.03906-1.0249-.27979-.28027-.23828-.44092-.58545-.44092-.95264v-7.38818c0-1.39551-.98633-2.60742-2.29395-2.81982-.80469-.13135-1.62207.09375-2.2373.61768-.61572.52393-.96875 1.2876-.96875 2.09521v12.34082c0 3.92139 2.05078 7.59424 5.35254 9.58496 1.03174.62256 1.64795 1.67725 1.64795 2.82129v7.89771c.43762-.07318 7.06207-.07324 7.5.00006v-7.85431c0-1.15918.6377-2.22705 1.70557-2.85693 3.26563-1.92529 5.29395-5.47021 5.29395-9.25049v-12.68311c0-.80762-.35303-1.57129-.96875-2.09521-.61523-.52344-1.43115-.74805-2.2373-.61768z"/>
    </symbol>
    <symbol version="1.1" id="outdoor" xmlns="http://www.w3.org/2000/svg" xmlns:xlink="http://www.w3.org/1999/xlink" x="0px" y="0px"  viewBox="0 0 489.854 489.854" style="enable-background:new 0 0 489.854 489.854;" xml:space="preserve">
        <path d="M485.014,392.413c-36.617-51.589-148.913-211.11-148.913-211.11c-2.688-3.828-6.929-6.304-11.584-6.778
        c-4.682-0.451-9.3,1.092-12.719,4.287l-29.426,27.545l-69.05-128.155c-2.8-5.172-8.161-8.433-14.046-8.512
        c-5.778-0.26-11.345,3.03-14.272,8.125L2.151,395.902c-2.879,5.016-2.863,11.185,0.016,16.192c2.911,5,8.26,8.085,14.034,8.085
        h457.138c0.111-0.016,0.222-0.008,0.313,0c8.959,0,16.202-7.253,16.202-16.2C489.854,399.446,487.439,395.83,485.014,392.413z
        M289.175,244.384l31.169-29.197l61.973,87.856l-52.577-54.766c-0.854-0.879-2.025-1.386-3.26-1.401
        c-1.199-0.008-2.387,0.474-3.256,1.338l-37.499,37.45c-1.299,1.304-3.261,1.694-4.968,0.981c-1.708-0.705-2.816-2.373-2.8-4.217
        l0.143-34.056C282.15,248.372,286.137,247.21,289.175,244.384z M198.594,119.195l40.203,74.591l-30.189,26.628
        c-0.933,0.832-2.184,1.235-3.415,1.124c-1.251-0.111-2.406-0.736-3.165-1.717l-19.351-24.556c-0.917-1.162-2.343-1.811-3.812-1.731
        c-1.489,0.079-2.848,0.877-3.622,2.128l-29.255,46.65c-0.917,1.447-2.565,2.27-4.273,2.111c-1.708-0.157-3.197-1.265-3.828-2.855
        l-3.923-9.936L198.594,119.195z"/>
    </symbol>
</svg>